<?xml version="1.0" encoding="utf-8"?>
<!-- Generator: Adobe Illustrator 19.0.0, SVG Export Plug-In . SVG Version: 6.00 Build 0)  -->
<svg version="1.1" id="Layer_1" xmlns="http://www.w3.org/2000/svg" xmlns:xlink="http://www.w3.org/1999/xlink" x="0px" y="0px"
	 viewBox="0 0 102 26" style="enable-background:new 0 0 102 26;" xml:space="preserve">
<style type="text/css">
	.st0{fill-rule:evenodd;clip-rule:evenodd;fill:#807F7F;}
	.st1{fill:#FFFFFF;}
</style>
<path id="XMLID_43_" class="st0" d="M0,0h102v26H0V0z"/>
<g id="XMLID_3_">
	<path id="XMLID_4_" class="st1" d="M6.2,19V7h3.1v12H6.2z"/>
	<path id="XMLID_6_" class="st1" d="M23.1,19l-5.5-7.4V19h-2.9V7h2.7l5.5,7.4V7h2.9v12H23.1z"/>
	<path id="XMLID_8_" class="st1" d="M36.9,9.4V19h-3.1V9.4h-3.6V7h10.3v2.5H36.9z"/>
	<path id="XMLID_10_" class="st1" d="M47.9,9.4v2.4h5.7v2.4h-5.7v2.4h6.5V19h-9.6V7h9.4v2.4H47.9z"/>
	<path id="XMLID_12_" class="st1" d="M65,15.6L65,15.6h-2.4V19h-3.1V7h5.4c1.6,0,2.8,0.4,3.7,1.1c0.9,0.7,1.3,1.8,1.3,3.1
		c0,0.9-0.2,1.7-0.6,2.4c-0.4,0.7-0.9,1.2-1.6,1.5l2.5,4h-3.5L65,15.6z M64.9,13.2c0.7,0,1.2-0.2,1.5-0.5c0.4-0.3,0.5-0.8,0.5-1.4
		c0-0.6-0.2-1.1-0.5-1.4c-0.4-0.3-0.9-0.5-1.5-0.5h-2.3v3.8H64.9z"/>
	<path id="XMLID_15_" class="st1" d="M75.1,19V7h3.1v12H75.1z"/>
	<path id="XMLID_18_" class="st1" d="M92.6,7.7c1,0.5,1.8,1.3,2.3,2.2c0.6,0.9,0.8,2,0.8,3.1c0,1.2-0.3,2.2-0.8,3.1
		c-0.6,0.9-1.3,1.7-2.3,2.2c-1,0.5-2.1,0.8-3.3,0.8c-1.2,0-2.3-0.3-3.3-0.8c-1-0.5-1.8-1.3-2.3-2.2c-0.6-0.9-0.9-2-0.9-3.1
		s0.3-2.2,0.9-3.1C84.2,8.9,85,8.2,86,7.7c1-0.5,2.1-0.8,3.3-0.8C90.5,6.9,91.6,7.1,92.6,7.7z M87.7,9.9c-0.5,0.3-0.9,0.7-1.2,1.3
		c-0.3,0.5-0.5,1.1-0.5,1.8c0,0.7,0.2,1.3,0.5,1.8s0.7,1,1.2,1.3c0.5,0.3,1.1,0.5,1.7,0.5c0.6,0,1.2-0.2,1.7-0.5
		c0.5-0.3,0.9-0.7,1.2-1.3s0.4-1.2,0.4-1.8c0-0.7-0.1-1.3-0.4-1.8c-0.3-0.5-0.7-1-1.2-1.3c-0.5-0.3-1.1-0.5-1.7-0.5
		C88.7,9.4,88.2,9.6,87.7,9.9z"/>
</g>
</svg>
